PathFileType	4	(X/Y/Z)	RBDS026\RBDS026runT25.trc
DataRate	CameraRate	NumFrames	NumMarkers	Units	OrigDataRate	OrigDataStartFrame	OrigNumFrames
150.000000	150.000000	4	33	mm	150.000000	3937	4500
Frame#	Time	L.ASIS			L.Heel.Bottom			L.Heel.Lateral			L.Heel.Top			L.Iliac.Crest			L.MT1			L.MT5			L.PSIS			L.Shank.Bottom.Lateral			L.Shank.Bottom.Medial			L.Shank.Top.Lateral			L.Shank.Top.Medial			L.Thigh.Bottom.Lateral			L.Thigh.Bottom.Medial			L.Thigh.Top.Lateral			L.Thigh.Top.Medial			R.ASIS			R.ASY			R.Heel.Bottom			R.Heel.Lateral			R.Heel.Top			R.Iliac.Crest			R.MT1			R.MT5			R.PSIS			R.Shank.Bottom.Lateral			R.Shank.Bottom.Medial			R.Shank.Top.Lateral			R.Shank.Top.Medial			R.Thigh.Bottom.Lateral			R.Thigh.Bottom.Medial			R.Thigh.Top.Lateral			R.Thigh.Top.Medial			
		X1	Y1	Z1	X2	Y2	Z2	X3	Y3	Z3	X4	Y4	Z4	X5	Y5	Z5	X6	Y6	Z6	X7	Y7	Z7	X8	Y8	Z8	X9	Y9	Z9	X10	Y10	Z10	X11	Y11	Z11	X12	Y12	Z12	X13	Y13	Z13	X14	Y14	Z14	X15	Y15	Z15	X16	Y16	Z16	X17	Y17	Z17	X18	Y18	Z18	X19	Y19	Z19	X20	Y20	Z20	X21	Y21	Z21	X22	Y22	Z22	X23	Y23	Z23	X24	Y24	Z24	X25	Y25	Z25	X26	Y26	Z26	X27	Y27	Z27	X28	Y28	Z28	X29	Y29	Z29	X30	Y30	Z30	X31	Y31	Z31	X32	Y32	Z32	X33	Y33	Z33	

3938	26.24666666666667	2060.505906065089	993.3821851171296	901.261580274949	1769.838716243523	30.06066269760189	1019.550758365258	1797.237228228318	51.09835657426289	968.2439323834943	1781.07935105099	77.27864369414135	1019.458895815003	1968.824080813799	1060.073579081383	859.1710142402446	1998.993271837823	45.69299884668141	1023.007811249354	1943.973063308158	40.8766953580739	921.530724958167	1885.479839346484	1033.02818672794	980.6914944355655	1889.331863542729	151.8228904800738	940.8161841536333	1848.969503412635	176.9834652334288	959.0238335990574	1922.326703048351	219.284677667647	910.5028459257429	1881.1437984428	248.4573070731647	927.3767000964181	2023.270385177868	587.5490830963508	862.2006724308095	1961.98129700631	578.7192454588534	900.5590738026279	1994.777772149867	692.2859730633161	842.2643917646302	1939.430909479597	684.5028888139657	883.7860041517407	2054.504890384729	990.4219154032802	1148.841502597999	1799.900256070384	177.0235063170043	1171.915431027789	1653.701202916036	286.5504230160549	1116.346568903326	1684.193826404528	285.4548465773599	1166.388801006477	1695.908893103053	304.9880129159569	1113.934340709654	1980.774071810511	1050.989051545926	1184.993715339209	1790.217480100075	109.6805753436857	1139.216845495089	1759.264405744579	156.5946750347291	1236.310176483322	1885.929727753641	1029.111759664643	1076.768742416441	1809.265708558949	310.3850438732123	1188.70009008428	1786.633637696914	345.6175812848273	1152.387502804257	1868.698066190717	364.927380738035	1201.011628314122	1846.407589819137	397.6054130792252	1164.773100110336	2101.27120877257	581.1542169158588	1208.190320881141	2038.927435979642	561.7811368882919	1178.202858057463	2065.507488026596	685.3469372812365	1216.808411127621	2004.033383037781	665.4796681679096	1193.37863384573	
3939	26.25333333333333	2059.572959299144	994.541882628585	900.704152719857	1752.942475494997	31.1167934146	1019.404210593489	1780.459578941998	52.04645894546176	968.1406318753243	1764.277785608719	78.32651141989108	1019.263928627649	1969.576123906438	1061.800595521847	858.7320713572723	1982.087361043406	45.55570390961954	1023.103440933017	1927.038467343254	40.83031050253583	921.6825286315149	1885.196204465689	1035.759766338232	980.3787547994338	1873.200061845822	152.9700065454042	940.7870389178451	1833.163853404936	178.446140077649	959.2650876932477	1906.709333998539	220.2290946385611	910.5752649850258	1865.81178318023	249.7369209836781	927.6577673095658	2012.738960008825	588.1268871331813	862.680006569386	1951.574797995133	581.0056417550808	901.5422892700433	1987.048221387916	693.5500871028953	842.8886115002827	1931.840736343256	687.3648198762522	884.893603570463	2054.373555340079	993.7483356603518	1148.219696217009	1818.931407618651	173.5154131631992	1171.926469914557	1667.040699118907	276.0526851239555	1117.73451544672	1698.077931267275	276.4632479576343	1167.405827207594	1708.371203972464	296.4735972228341	1114.848241446314	1979.967296414271	1053.72438133832	1184.540760542797	1812.028682474993	105.8361323428552	1139.345804945331	1779.876841958474	151.3532068096203	1236.695442315961	1885.695050463802	1032.086717838026	1076.530066350126	1822.708180341839	306.432388603058	1188.745353942583	1798.628565886942	340.9288577942294	1152.681316869266	1880.376870782876	362.9286402516375	1200.772704643601	1856.716692520633	394.8506455493736	1164.791327962928	2107.829918008161	586.7529069009844	1207.192592944491	2045.593538102309	566.1787296526198	1177.814739398613	2070.115326605696	690.2176598835765	1216.274945081772	2008.829937450849	669.1746734250078	1193.451526349396	
3940	26.26	2058.693814973532	995.9684938584456	900.0772395712579	1736.095458438449	32.65132574030775	1019.230915726655	1763.790197287713	53.39323660470298	968.0173757160389	1747.588199516583	79.82485250943708	1019.030241730219	1970.576376187994	1063.821337862233	858.3158461451707	1965.178656091539	45.48584816821371	1023.295529610705	1910.118534053628	40.87470928581106	921.8990561989144	1885.098404312152	1038.923514394648	980.1108499344202	1857.045142022505	154.5328505686442	940.7596548671669	1817.305934469037	180.2702360254848	959.5330641486528	1890.974236005676	221.6321653090409	910.6538892305439	1850.334513154606	251.4213257993115	927.9636624744371	2001.876341045836	589.274912599556	863.3180440165507	1940.9672148481	583.9661663627523	902.8050918648514	1979.136480996511	695.3243342808644	843.651153607702	1924.163094701655	690.8185357533794	886.2074878983423	2054.555386826199	997.2755015795724	1147.443830109172	1838.297632122215	169.7671357967336	1171.607389532636	1681.077996315022	264.9019261263452	1118.589044754232	1712.499608454943	266.858754361077	1167.938336078463	1721.423437931409	287.2951873936139	1115.324695217362	1979.709158581635	1056.789639946066	1184.159320686712	1834.351691728983	101.9073006731716	1139.064306262401	1800.802939126324	145.8587735820965	1236.6291854072	1885.710464181777	1035.550457744035	1076.388303878061	1836.297660763094	302.09644004972	1188.518652633501	1810.717710779741	335.7322889809342	1152.687203176449	1891.965351213053	360.651871973082	1200.35119919574	1866.864311195649	391.705309705863	1164.628290748646	2114.010952467725	592.8050819665134	1206.336298341562	2051.845555306445	571.1165801697798	1177.67379199534	2074.570893357639	695.5768387479134	1215.857870140429	2013.434221306663	673.4562796420573	1193.717126788213	
3941	26.26666666666667	2057.882393918937	997.6128475285917	899.4099488712101	1719.336760474215	34.79592802602594	1019.048507169035	1747.277472750462	55.23896088796185	967.8839172937902	1731.076723541529	81.8958506971866	1018.762543625998	1971.805422741585	1066.128474876922	857.9492969926704	1948.274103010254	45.46653636001587	1023.570769099428	1893.219159867718	41.01371141928192	922.1687268777861	1885.18315364458	1042.477639627117	979.8736520006545	1840.922931010445	156.5548113120592	940.7216310015806	1801.45931712731	182.506843714521	959.8192728613552	1875.183764716935	223.5307342050053	910.7164501602153	1834.789013504764	253.5530538828195	928.2828166833684	1990.800379631803	591.0017298079239	864.0673936787258	1930.25926793704	587.5809591620866	904.2608028240483	1971.135077343563	697.6119985224326	844.5157329169183	1916.482134272741	694.8396159781757	887.6705203542691	2055.022989216666	1001.002432688965	1146.536158646304	1857.972059605809	165.8288737888562	1170.981395697452	1695.853962150489	253.1898431839279	1118.912908217511	1727.493035808134	256.7133478492837	1167.998951040628	1735.09996474876	277.5319394567505	1115.369260380929	1979.979359607183	1060.274231926334	1183.873039149195	1857.142231118704	97.96029418451171	1138.404457227297	1822.028722854211	140.1710579623641	1236.146318560538	1885.96049489575	1039.477876839405	1076.330181661201	1850.054379464959	297.3991601732465	1188.027719633156	1822.943583239398	330.0504035252935	1152.407290247385	1903.486884379261	358.0777970421894	1199.755700862436	1876.891035894829	388.1568845281933	1164.287748392913	2119.786816672794	599.215530399725	1205.616529633136	2057.651657644112	576.5061693957211	1177.77504147122	2078.856604515081	701.344517864061	1215.550471493764	2017.821911272825	678.2529702838572	1194.163347327046	
